<svg width="21" height="20" viewBox="0 0 21 20" fill="none" xmlns="http://www.w3.org/2000/svg">
<path d="M4.35771 2.40894C4.35742 2.98124 4.1298 3.52998 3.72492 3.93446C3.32004 4.33893 2.77107 4.566 2.19877 4.56572C1.62647 4.56543 1.07773 4.33781 0.673251 3.93293C0.268777 3.52805 0.0417063 2.97908 0.0419925 2.40678C0.0422786 1.83448 0.269898 1.28573 0.674777 0.881259C1.07966 0.476785 1.62863 0.249714 2.20093 0.25C2.77323 0.250286 3.32198 0.477906 3.72645 0.882785C4.13092 1.28766 4.358 1.83664 4.35771 2.40894ZM4.42244 6.16361H0.106728V19.6718H4.42244V6.16361ZM11.2413 6.16361H6.94714V19.6718H11.1981V12.5832C11.1981 8.63436 16.3446 8.26752 16.3446 12.5832V19.6718H20.6064V11.1159C20.6064 4.4589 12.9891 4.70706 11.1981 7.97621L11.2413 6.16361Z" fill="#F2F2F2"/>
</svg>
