<svg width="306" height="105" viewBox="0 0 306 105" fill="none" xmlns="http://www.w3.org/2000/svg">
<path d="M305.964 38.6845C305.743 30.7215 304.176 24.5099 301.665 19.7252H301.669L301.64 19.6734C301.363 19.1494 301.076 18.6441 300.778 18.1547C294.399 7.28742 282.791 0 269.481 0C256.17 0 244.562 7.28742 238.182 18.1534C237.884 18.6428 237.597 19.1481 237.321 19.672C237.312 19.6893 237.302 19.7053 237.292 19.7226H237.295C234.785 24.5086 233.216 30.7202 232.996 38.6832C232.977 39.3308 232.961 39.9811 232.961 40.6513V75.8304H253.513V41.8189C253.513 29.1324 258.897 20.3822 269.481 20.3822C280.064 20.3822 285.444 29.1324 285.444 41.8189V75.8317H306V40.6526C306 39.9811 305.984 39.3321 305.964 38.6845Z" fill="#3DDDA8"/>
<path d="M38.0537 0.139648C17.1524 0.139648 0 15.8568 0 38.4943C0 61.1319 17.0088 76.8464 38.0537 76.8464C58.8102 76.8464 75.9626 61.1306 75.9626 38.4943C75.9626 15.8581 58.8102 0.139648 38.0537 0.139648ZM38.0537 57.814C27.9633 57.814 20.468 50.0279 20.468 38.493C20.468 27.1018 27.9633 19.172 38.0537 19.172C47.7108 19.172 55.4946 27.1018 55.4946 38.493C55.4946 50.0279 47.7108 57.814 38.0537 57.814Z" fill="#3DDDA8"/>
<path d="M214.063 0.879028L196.275 54.6902L178.053 0.879028H156.186L185.052 76.2719L183.157 81.2295C181.115 86.3333 179.365 87.6459 174.118 87.6459H150.484V105H182.719C194.382 105 198.173 98.8749 202.838 86.4796L236.076 0.879028H214.063Z" fill="#3DDDA8"/>
<path d="M159.361 38.3534C159.361 15.7158 142.209 0 121.452 0C100.551 0 83.3984 15.7158 83.3984 38.3534V104.997H103.954V71.1454C108.247 74.716 113.978 76.7067 121.452 76.7067C142.125 76.7067 159.217 61.1146 159.354 38.6233C159.354 38.5316 159.361 38.4451 159.361 38.3534ZM103.866 38.3534C103.866 26.9621 111.362 19.0324 121.452 19.0324C131.109 19.0324 138.893 26.9621 138.893 38.3534C138.893 49.8882 131.109 57.6743 121.452 57.6743C111.362 57.6743 103.866 49.8882 103.866 38.3534Z" fill="#3DDDA8"/>
</svg>
