<svg width="25" height="20" viewBox="0 0 25 20" fill="none" xmlns="http://www.w3.org/2000/svg">
<path d="M24.6085 2.56996C23.7219 2.96282 22.7695 3.22826 21.7683 3.34824C22.7897 2.73666 23.5733 1.7662 23.9428 0.611001C22.9872 1.17799 21.9286 1.58995 20.8021 1.8108C19.8996 0.850961 18.6148 0.25 17.192 0.25C14.4612 0.25 12.2463 2.46485 12.2463 5.19784C12.2463 5.58432 12.2909 5.96019 12.3737 6.32331C8.26152 6.11627 4.6186 4.14669 2.17865 1.15463C1.75395 1.88725 1.50974 2.73666 1.50974 3.64129C1.50974 5.3571 2.38357 6.87225 3.70972 7.75882C2.89853 7.73228 2.13618 7.51037 1.46939 7.13981V7.20352C1.46939 9.59992 3.17353 11.5992 5.43722 12.0537C5.02101 12.1662 4.58462 12.2257 4.13443 12.2257C3.8159 12.2257 3.5048 12.1959 3.20326 12.1386C3.83289 14.1029 5.65913 15.5341 7.82407 15.5724C6.13055 16.8996 3.99746 17.6906 1.68068 17.6906C1.28146 17.6906 0.887543 17.6672 0.5 17.6216C2.68936 19.0263 5.28857 19.8439 8.08102 19.8439C17.1804 19.8439 22.1548 12.3074 22.1548 5.77119C22.1548 5.55884 22.1494 5.34436 22.1399 5.13201C23.1061 4.43337 23.9449 3.56378 24.6064 2.57315L24.6085 2.56996Z" fill="#F2F2F2"/>
</svg>
